<svg xmlns="http://www.w3.org/2000/svg" width="869" height="1746" viewBox="0 0 869 1746">
  <g fill="none" fill-rule="evenodd">
    <path fill="#ffffff" d="M159.104 5.334h550.787c105.08 0 154.554 51.174 154.554 154.629v1426.724c0 100.073-52.773 154.63-154.554 154.63l-550.787-.001c-105.08 0-154.554-51.174-154.554-154.629V159.963C4.55 56.508 54.025 5.334 159.104 5.334zm0 15.697C63.351 21.03 20.24 64.513 20.24 159.963v1426.724c0 95.45 43.112 138.932 138.865 138.932h550.787c92.434 0 138.865-46.843 138.865-138.932V159.963c0-95.45-43.112-138.932-138.865-138.932H159.104z"/>
    <path fill="#ffffff" stroke="#ffffff" stroke-width="3" d="M159.106 22.033h550.786c95.067 0 137.864 42.9 137.864 137.93v1426.724c0 91.683-46.129 137.93-137.864 137.93H159.106c-95.067 0-137.864-42.9-137.864-137.93V159.963c0-95.03 42.797-137.93 137.864-137.93zm485.673 55.114v.668c0 10.151-4.033 20.728-11.417 28.683-8.525 9.185-20.872 14.399-36.313 14.399H272.617c-15.44 0-27.788-5.214-36.313-14.399-7.384-7.955-11.417-18.532-11.417-28.683v-.668c0-6.275-.309-8.888-1.782-11.395-1.912-3.257-5.775-4.97-12.57-4.97H145.78c-53.562 0-85.78 32.237-85.78 85.83v1453.426c0 53.593 32.218 85.83 85.78 85.83h577.436c53.562 0 85.78-32.237 85.78-85.83V146.612c0-53.593-32.218-85.83-85.78-85.83h-64.085c-6.665 0-10.511 1.65-12.458 4.781-1.516 2.438-1.89 5.208-1.895 11.029v.555z"/>
    <path stroke="#32ADF9" stroke-width="12" d="M159.104 5.334h550.787c105.08 0 154.554 51.174 154.554 154.629v1426.724c0 100.073-52.773 154.63-154.554 154.63l-550.787-.001c-105.08 0-154.554-51.174-154.554-154.629V159.963C4.55 56.508 54.025 5.334 159.104 5.334z"/>
    <path d="M7.545 173.564h14.688v12.021H7.545zm839.22 0h14.688v12.021h-14.688zM7.545 1559.957h14.688v12.021H7.545zm839.22 0h14.688v12.021h-14.688zM6.663 242.32A4.667 4.667 0 0 0 2 246.99v57.38c0 2.58 2.088 4.67 4.663 4.67h2.665c0-3.51.044-63.29 0-66.72H6.663zm0 122.098c-1.516.373-3.334 1.327-4.305 2.684-.2.279-.358 1.163-.358 1.418v117.176c0 .273.223 1.65.359 1.985.785 1.926 2.15 2.392 4.304 3.505h2.665c0-3.51.044-123.338 0-126.768H6.663zm0 158.126c-1.516.373-3.334 1.328-4.305 2.684-.2.28-.358 1.164-.358 1.419v117.176c0 .272.223 1.65.359 1.985.785 1.925 2.15 2.391 4.304 3.505h2.665c0-3.51.044-123.338 0-126.769H6.663zm855.672-116.76c1.516.373 3.335 1.328 4.305 2.684.2.28.358 1.163.358 1.419v191.902c0 .273-.222 1.65-.359 1.985-.785 1.926-2.15 2.392-4.304 3.505h-2.664c0-3.51-.045-198.064 0-201.495h2.664z" fill="#ffffff" fill-rule="nonzero"/>
    <g fill="#ffffff" fill-rule="nonzero" transform="translate(382.377 64.884)">
      <rect width="104.243" height="14.096" y="6.041" rx="7.048"/>
      <ellipse cx="143.669" cy="12.753" rx="12.696" ry="12.753"/>
    </g>
    <path stroke="#A3DAFC" stroke-width="3" d="M644.78 77.147v.668c0 10.151-4.034 20.728-11.418 28.684-8.525 9.184-20.872 14.398-36.313 14.398H272.617c-15.44 0-27.788-5.214-36.313-14.398-7.384-7.956-11.417-18.533-11.417-28.684v-.668c0-6.275-.309-8.887-1.781-11.395-1.912-3.256-5.775-4.969-12.571-4.969h-64.753C92.219 60.783 60 93.02 60 146.613v1453.425c0 53.593 32.218 85.83 85.78 85.83h577.436c53.563 0 85.781-32.237 85.781-85.83V146.613c0-53.593-32.218-85.83-85.78-85.83h-64.086c-6.664 0-10.511 1.65-12.457 4.78-1.516 2.438-1.89 5.209-1.895 11.029v.555z"/>
  </g>
</svg>