<?xml version="1.0" encoding="utf-8"?>
<!-- Generator: Adobe Illustrator 22.0.1, SVG Export Plug-In . SVG Version: 6.00 Build 0)  -->
<svg version="1.1" id="Layer_1" xmlns="http://www.w3.org/2000/svg" xmlns:xlink="http://www.w3.org/1999/xlink" x="0px" y="0px"
	 viewBox="0 0 869 1746" style="enable-background:new 0 0 869 1746;" xml:space="preserve">
<style type="text/css">
	.st0{fill:#FFFFFF;}
	.st1{fill:#FFFFFF;stroke:#FFFFFF;stroke-width:3;}
	.st2{fill:#FF00FF;}
	.st3{fill:none;stroke:#00FFFF;stroke-width:3;}
</style>
<g>
	<path class="st0" d="M159.1,5.3h550.8C815,5.3,864.4,56.5,864.4,160v1426.7c0,100.1-52.8,154.6-154.6,154.6l-550.8,0
		c-105.1,0-154.6-51.2-154.6-154.6V160C4.6,56.5,54,5.3,159.1,5.3z M159.1,21C63.4,21,20.2,64.5,20.2,160v1426.7
		c0,95.4,43.1,138.9,138.9,138.9h550.8c92.4,0,138.9-46.8,138.9-138.9V160C848.8,64.5,805.6,21,709.9,21C709.9,21,159.1,21,159.1,21
		z"/>
	<path class="st1" d="M159.1,22h550.8C805,22,847.8,64.9,847.8,160v1426.7c0,91.7-46.1,137.9-137.9,137.9H159.1
		c-95.1,0-137.9-42.9-137.9-137.9V160C21.2,64.9,64,22,159.1,22z M644.8,77.1v0.7c0,10.2-4,20.7-11.4,28.7
		c-8.5,9.2-20.9,14.4-36.3,14.4H272.6c-15.4,0-27.8-5.2-36.3-14.4c-7.4-8-11.4-18.5-11.4-28.7v-0.7c0-6.3-0.3-8.9-1.8-11.4
		c-1.9-3.3-5.8-5-12.6-5h-64.8C92.2,60.8,60,93,60,146.6V1600c0,53.6,32.2,85.8,85.8,85.8h577.4c53.6,0,85.8-32.2,85.8-85.8V146.6
		c0-53.6-32.2-85.8-85.8-85.8h-64.1c-6.7,0-10.5,1.7-12.5,4.8c-1.5,2.4-1.9,5.2-1.9,11L644.8,77.1L644.8,77.1z"/>
	<g>
		<path class="st2" d="M709.9,11.3c25.5,0,47.9,3.1,66.6,9.3c18.4,6.1,33.8,15.3,45.8,27.4c12,12.1,21.1,27.5,27.1,45.9
			c6,18.6,9.1,40.7,9.1,66v1426.7c0,48.4-12.6,85.6-37.4,110.6c-25,25.2-62.4,38-111.2,38l-550.8,0c-25.5,0-47.9-3.1-66.6-9.3
			c-18.4-6.1-33.8-15.3-45.8-27.4c-12-12.1-21.1-27.5-27.1-45.9c-6-18.6-9.1-40.7-9.1-66V160c0-25.2,3.1-47.4,9.1-66
			c6-18.4,15.1-33.8,27.1-45.9c12-12.1,27.4-21.4,45.8-27.4c18.7-6.2,41.1-9.3,66.6-9.3H709.9 M709.9,5.3H159.1
			C54,5.3,4.6,56.5,4.6,160v1426.7c0,103.5,49.5,154.6,154.6,154.6l550.8,0c101.8,0,154.6-54.6,154.6-154.6V160
			C864.4,56.5,815,5.3,709.9,5.3L709.9,5.3z"/>
	</g>
	<path class="st0" d="M7.5,173.6h14.7v12H7.5V173.6z M846.8,173.6h14.7v12h-14.7V173.6z M7.5,1560h14.7v12H7.5V1560z M846.8,1560
		h14.7v12h-14.7V1560z M6.7,242.3c-2.6,0-4.7,2.1-4.7,4.7v57.4c0,2.6,2.1,4.7,4.7,4.7h2.7c0-3.5,0-63.3,0-66.7H6.7z M6.7,364.4
		c-1.5,0.4-3.3,1.3-4.3,2.7c-0.2,0.3-0.4,1.2-0.4,1.4v117.2c0,0.3,0.2,1.6,0.4,2c0.8,1.9,2.2,2.4,4.3,3.5h2.7c0-3.5,0-123.3,0-126.8
		L6.7,364.4L6.7,364.4z M6.7,522.5c-1.5,0.4-3.3,1.3-4.3,2.7c-0.2,0.3-0.4,1.2-0.4,1.4v117.2c0,0.3,0.2,1.7,0.4,2
		c0.8,1.9,2.2,2.4,4.3,3.5h2.7c0-3.5,0-123.3,0-126.8L6.7,522.5L6.7,522.5z M862.3,405.8c1.5,0.4,3.3,1.3,4.3,2.7
		c0.2,0.3,0.4,1.2,0.4,1.4v191.9c0,0.3-0.2,1.7-0.4,2c-0.8,1.9-2.2,2.4-4.3,3.5h-2.7c0-3.5,0-198.1,0-201.5H862.3L862.3,405.8z"/>
	<g transform="translate(382.377 64.884)">
		<path class="st0" d="M7,6h90.1c3.9,0,7,3.2,7,7v0c0,3.9-3.2,7-7,7H7c-3.9,0-7-3.2-7-7v0C0,9.2,3.2,6,7,6z"/>
		<ellipse class="st0" cx="143.7" cy="12.8" rx="12.7" ry="12.8"/>
	</g>
	<path class="st3" d="M644.8,77.1v0.7c0,10.2-4,20.7-11.4,28.7c-8.5,9.2-20.9,14.4-36.3,14.4H272.6c-15.4,0-27.8-5.2-36.3-14.4
		c-7.4-8-11.4-18.5-11.4-28.7v-0.7c0-6.3-0.3-8.9-1.8-11.4c-1.9-3.3-5.8-5-12.6-5h-64.8C92.2,60.8,60,93,60,146.6V1600
		c0,53.6,32.2,85.8,85.8,85.8h577.4c53.6,0,85.8-32.2,85.8-85.8V146.6c0-53.6-32.2-85.8-85.8-85.8h-64.1c-6.7,0-10.5,1.7-12.5,4.8
		c-1.5,2.4-1.9,5.2-1.9,11L644.8,77.1L644.8,77.1z"/>
</g>
</svg>
